<svg xmlns="http://www.w3.org/2000/svg" version="1.1" xmlns:xlink="http://www.w3.org/1999/xlink" xmlns:svgjs="http://svgjs.dev/svgjs" width="1000" height="1000" viewBox="0 0 1000 1000"><rect width="1000" height="1000" fill="#ffffff"></rect><g transform="matrix(0.7,0,0,0.7,150.0000000000001,106.25)"><svg viewBox="0 0 320 360" data-background-color="#ffffff" preserveAspectRatio="xMidYMid meet" height="1125" width="1000" xmlns="http://www.w3.org/2000/svg" xmlns:xlink="http://www.w3.org/1999/xlink"><g id="tight-bounds" transform="matrix(1,0,0,1,0,0)"><svg viewBox="0 0 320 360" height="360" width="320"><g><svg></svg></g><g><svg viewBox="0 0 320 360" height="360" width="320"><g><path xmlns="http://www.w3.org/2000/svg" d="M20.961 227.22l3.726 4.658-1.863-6.056c-0.466-2.795-3.726 0.466-1.863 1.398M25.153 224.425c1.397 2.329 2.795 4.658 2.795 6.987 0 3.261 2.795 4.658 5.123 5.589-3.261-3.726-5.124-13.974-7.918-12.576M204.017 26.929c7.918 0 15.371-0.932 23.756 0.931 20.495 5.124 37.729 15.371 49.374 29.811l32.606 52.169c1.397 13.042 4.192 27.482 3.726 43.319 3.261 0 2.795-4.658 6.521-5.59-3.726 9.316-5.59 20.961-6.521 34.469-2.329-7.453 0-18.632 0.466-24.687-3.261 5.124-5.124 1.397-5.124-0.932 0.466-3.726-1.397-3.261-2.795-4.658-5.124-4.658-8.384-9.782-12.11-17.7 2.329-6.055 2.795-14.905-4.658-19.563-2.329-1.397-5.124-3.726-6.521-7.453-1.863-5.124-5.124-11.179-4.193-19.097 0.466-2.329-6.987 5.124-11.179 1.863-18.166-12.576-36.332-27.016-58.224-39.127-11.645 0-20.029-4.192-24.221-9.316-3.726-4.658-0.932-10.713 4.658-11.179 3.261 0 6.987-0.932 9.782 0.932 0.466-1.863 2.329-4.192 4.657-4.192M157.904 16.215l0.932 0.466c4.658 0.932 6.987 7.453 12.11 5.124 0 3.261 0.466 6.521-0.466 8.85-1.397 3.726-5.59 3.726-8.85 3.726-31.208-1.863-49.374 11.179-68.471 22.358-5.124 3.261-10.713 5.59-14.906 9.782-20.029 18.632-41.921 35.866-47.045 70.335l-4.192 38.195c-0.466 4.192-5.124 8.384-4.192 13.508l3.26 22.824c-3.261-3.261-5.124 0.932-4.192 2.795 0.466 1.397 2.329 6.055 5.124 1.863 3.726 6.987 7.453 20.495 12.576 26.55 15.837 18.632 36.332 35.4 53.101 52.169 4.192-0.932 7.453-0.932 8.384-3.727 1.397 2.795-1.397 5.59-3.726 6.056 7.453 4.658 15.837 8.85 27.016 9.781 14.44 0.932 27.948 3.261 40.524 6.522 6.521-1.863 13.042-2.795 20.029-3.261 2.329 0 3.726-3.726 6.521-4.658l0.466-4.658c2.795 4.192 2.329-1.397 0.466-4.192 3.261 2.795 4.192 5.124 5.589 6.987 0-1.397 3.726-6.521 3.727-0.466l0.931-6.055c1.397-0.932 1.863 5.124 3.261 0.931 1.397-4.192 4.192-0.932 6.987-2.329-0.932 1.863-0.466 5.59 2.794 3.261l3.727-3.261c2.329 5.59 6.055 3.261 7.918 2.329 20.495-13.042 40.99-28.413 60.553-43.784l-0.466 6.055 2.329-7.453c2.329 2.329 4.192 0.466 5.124-0.931 2.795-4.658 6.521-9.316 12.577-13.508-7.453 20.029-16.303 35.866-27.482 48.908l-4.658 5.59c0 3.261-0.932 7.453-4.658 7.918-1.863 0.466-5.59-0.932-8.384 1.863-1.397 1.863 3.261 5.59-0.466 2.795-3.261-2.329-6.521 0-10.248 0.932-2.795 0.932 1.863 3.726 2.795 5.589 0.932 1.863 1.863 3.726 1.398 6.056l-5.124-5.59c-6.055 3.261-9.782 9.316-14.906 13.974-2.329 1.863-1.397 5.124-1.397 7.918-3.261 0-6.987-0.932-8.85 0.932-1.397 1.863-0.932 4.658-0.932 7.453-4.658-0.466-5.124-7.453-9.315-6.056-4.192 0.932-8.85 1.397-12.577 3.727 2.795 5.59-4.658 2.329-3.726 3.26-6.987-4.192-13.042-7.453-20.495-4.658-15.837-5.124-35.4-2.795-49.84-0.931 0-2.329 0.466-4.658-0.466-5.124-0.932 2.329-3.726 1.397-3.26 1.397-8.85-6.055-17.7-9.782-27.016-14.905-8.384 0.932-16.303-3.261-18.632-5.59-6.521-6.055-13.974-2.795-20.029-4.192-13.042-3.261-17.7-16.769-19.098-26.084-0.932-4.658-4.658-6.521-6.055-6.056-6.055-19.563-15.371-37.263-22.824-55.429-1.863-4.658-1.397-9.316-1.397-14.44 2.329 0.932 4.658 0.466 4.192-2.794-2.329-15.371-7.918-27.016-13.974-38.195 3.261-15.837 3.726-34.469 11.179-48.443 6.521-12.576 18.632-19.098 27.016-29.811 2.795-3.726 2.795-8.85 5.59-12.11 9.316-9.316 18.632-19.098 28.879-27.482 4.658-3.726 10.247 0 17.234-1.397 2.329-8.384 11.645-15.837 20.495-13.508 3.726 0.932 11.179-8.85 13.508-9.782 3.726-1.397 1.863 3.726 1.863 6.987 8.85-6.987 20.961-10.713 32.14-14.906" fill="#096a2e" fill-rule="nonzero" stroke="none" stroke-width="1" stroke-linecap="butt" stroke-linejoin="miter" stroke-miterlimit="10" stroke-dasharray="" stroke-dashoffset="0" font-family="none" font-weight="none" font-size="none" text-anchor="none" style="mix-blend-mode: normal" data-fill-palette-color="tertiary"></path></g><g transform="matrix(1,0,0,1,64,162.45286450439528)"><svg viewBox="0 0 192 35.09427099120946" height="35.09427099120946" width="192"><g><svg viewBox="0 0 192 35.09427099120946" height="35.09427099120946" width="192"><g><svg viewBox="0 0 192 35.09427099120946" height="35.09427099120946" width="192"><g><svg viewBox="0 0 192 35.09427099120946" height="35.09427099120946" width="192"><g><svg viewBox="0 0 192 35.09427099120946" height="35.09427099120946" width="192"><g><svg viewBox="0 0 192 35.09427099120946" height="35.09427099120946" width="192"><g transform="matrix(1,0,0,1,0,0)"><svg width="192" viewBox="2.5 -36.54999923706055 219.9130859375 40.20000076293945" height="35.09427099120946" data-palette-color="#1b5e20"><path d="M10.6-22.5Q10.7-22.4 10.8-22.35 10.9-22.3 11-22.25L11-22.25Q12.85-23.65 14.95-25.15L14.95-25.15 25.9-32.9Q26.45-33.3 27.55-33.3L27.55-33.3Q28.45-33.3 29.28-32.98 30.1-32.65 30.45-32.1L30.45-32.1Q30.75-31.65 30.75-31.2L30.75-31.2Q30.75-30.55 29.95-29.75L29.95-29.75 24.45-25.1 23.05-23.95Q20.65-22.05 19.5-21L19.5-21Q18.8-20.4 18.48-19.98 18.15-19.55 18.15-19.1L18.15-19.1Q18.15-18.5 19-17.1L19-17.1 19.9-15.7Q23.2-10.4 25.58-7 27.95-3.6 30.85-0.55L30.85-0.55 31.7 0.4Q30.85 1.1 30.2 1.1L30.2 1.1Q29.6 1.1 29.05 0.65L29.05 0.65Q25.6-1.9 22.9-4.58 20.2-7.25 18.25-10.45L18.25-10.45Q17.25-12.05 15.75-14.05L15.75-14.05Q15.65-14.25 14.45-15.95L14.45-15.95 13-14.75Q10.25-12.55 8.85-11.2L8.85-11.2Q8.4-10.8 8.15-10.08 7.9-9.35 7.85-8.65L7.85-8.65Q7.8-7.85 7.8-6.2L7.8-6.2 7.85-1.25Q7.85-0.1 7.63 0.68 7.4 1.45 6.6 1.95L6.6 1.95Q4.8 1.3 4.13 0.85 3.45 0.4 3.23-0.35 3-1.1 2.95-2.85L2.95-2.85 2.75-5.4Q2.5-7.5 2.5-9.05L2.5-9.05Q2.5-11.4 2.88-13.78 3.25-16.15 4-19.7L4-19.7Q5-24.75 6.3-29L6.3-29Q6.9-30.85 7.95-32.88 9-34.9 9.2-35.3L9.2-35.3Q9.55-35.95 9.93-36.25 10.3-36.55 10.8-36.55L10.8-36.55Q11.55-36.55 13.1-35.8L13.1-35.8Q13.85-35.45 14.13-35.15 14.4-34.85 14.4-34.4L14.4-34.4Q14.4-33.95 14.1-33.1L14.1-33.1 12.4-28.25Q12.05-27.15 11.25-24.95L11.25-24.95Q11.05-24.35 10.6-22.5L10.6-22.5ZM41.4-23.3Q41.3-23 40.67-22.65 40.05-22.3 39.65-22L39.65-22 38.25-22.75Q36.2-23.85 35.45-24.5L35.45-24.5Q35.05-24.8 35.05-25.25L35.05-25.25Q35.05-25.55 35.27-25.78 35.5-26 35.95-26L35.95-26Q37.9-26 40.7-25L40.7-25Q41-24.95 41.25-24.33 41.5-23.7 41.4-23.3L41.4-23.3ZM36.9-14Q37.05-14.65 37.1-14.95 37.15-15.25 37.15-15.6L37.15-15.6Q37.15-16.3 37.57-16.7 38-17.1 39.2-17.1L39.2-17.1Q40.6-17.1 41.67-16.23 42.75-15.35 43-13.95L43-13.95Q43.15-13.25 43.2-12.4 43.25-11.55 43.25-11.3L43.25-11.3 43.95-2.75Q44.1-1.4 43.57-0.68 43.05 0.05 41.6 0.05L41.6 0.05Q40.35 0.05 39.47-0.65 38.6-1.35 38.4-2.45L38.4-2.45 37.1-13.05 36.9-14ZM47.4-18.65Q47.05-19.05 46.92-19.5 46.8-19.95 46.7-20.75L46.7-20.75Q47.15-21.8 48.35-21.8L48.35-21.8Q48.95-21.7 49.2-21.7L49.2-21.7Q50.2-21.7 50.45-22.3 50.7-22.9 50.7-23.7 50.7-24.5 50.7-24.95L50.7-24.95 50.85-27.95Q50.9-28.95 50.97-30.43 51.05-31.9 51.15-33.85L51.15-33.85Q51.2-34.9 51.67-35.4 52.15-35.9 53-35.9L53-35.9Q53.6-35.9 53.95-35.8L53.95-35.8Q56-35.35 56.7-34.5 57.4-33.65 57.65-31.95L57.65-31.95Q57.7-31.6 57.55-30.5L57.55-30.5 56.65-22.7Q56.6-22.4 56.5-21.98 56.4-21.55 56.4-21.35L56.4-21.35Q56.4-20.9 56.9-20.75 57.4-20.6 58.75-20.65L58.75-20.65Q61.05-21.15 62.25-21.3L62.25-21.3Q62.5-21.35 63.05-21.35L63.05-21.35Q63.65-21.35 63.85-21.2L63.85-21.2Q64.05-21.1 64.17-20.63 64.3-20.15 64.3-19.55L64.3-19.55Q64.3-19 64.17-18.55 64.05-18.1 63.85-18.05L63.85-18.05Q62.5-17.65 60.65-17.4L60.65-17.4Q58.45-17 57.4-16.7L57.4-16.7Q56.85-16.55 56.3-15.95 55.75-15.35 55.7-14.85L55.7-14.85Q55.6-12.4 55.55-9.85L55.55-9.85Q55.5-7.9 55.7-5.95L55.7-5.95Q55.85-4.3 56.35-3.58 56.85-2.85 57.85-2.85L57.85-2.85Q58.65-2.85 60.15-3.4L60.15-3.4Q60.95-3.75 61.55-3.75L61.55-3.75Q62.5-3.75 62.9-2.7L62.9-2.7Q63.05-2.35 63.05-2L63.05-2Q63.05-1.35 62.57-0.95 62.1-0.55 61.3-0.25L61.3-0.25Q59.8 0.3 58.25 0.35L58.25 0.35Q56.15 0.35 54.3-0.68 52.45-1.7 51.37-3.55 50.3-5.4 50.45-7.8L50.45-7.8Q50.5-8.75 50.5-10.8L50.5-10.8Q50.5-14.05 50.25-17.4L50.25-17.4Q50.2-17.7 49.9-17.82 49.6-17.95 48.9-18.1L48.9-18.1Q47.75-18.3 47.4-18.65L47.4-18.65ZM83.44-2.55Q82.99-2.75 82.54-2.75L82.54-2.75Q82.09-2.75 81.77-2.53 81.44-2.3 81.04-1.85L81.04-1.85Q80.44-1.25 79.79-0.85L79.79-0.85Q79.19-0.5 77.59-0.2L77.59-0.2Q76.89-0.1 76.44-0.1L76.44-0.1Q74.34-0.1 72.07-1.03 69.79-1.95 68.84-3.25L68.84-3.25Q67.84-4.65 67.89-6.25L67.89-6.25Q67.94-8.65 69.89-11.05L69.89-11.05Q71.79-13.35 73.37-14.3 74.94-15.25 77.69-15.5L77.69-15.5Q78.29-15.5 79.42-15.7 80.54-15.9 80.54-16.25L80.54-16.25Q80.54-16.95 79.92-17.53 79.29-18.1 77.39-18.1L77.39-18.1Q76.69-18.1 75.29-18L75.29-18Q73.89-17.9 73.34-17.9L73.34-17.9Q71.64-17.9 70.89-18.45L70.89-18.45Q70.69-18.55 70.69-19.4L70.69-19.4Q70.69-20.9 71.74-21.3L71.74-21.3Q73.89-22.1 76.19-22.15L76.19-22.15Q79.09-22.15 81.57-20.88 84.04-19.6 85.19-17.7L85.19-17.7Q86.34-15.8 86.69-12.45L86.69-12.45Q87.09-8.7 87.09-2.9L87.09-2.9Q87.09-1.3 86.64-1.05L86.64-1.05Q86.24-0.8 85.89-0.8L85.89-0.8Q85.44-0.8 85.07-1.07 84.69-1.35 84.24-1.85L84.24-1.85Q83.79-2.4 83.44-2.55L83.44-2.55ZM75.54-3.15Q77.89-3.85 80.14-5.4L80.14-5.4Q80.64-5.75 81.04-6.3 81.44-6.85 81.54-7L81.54-7Q81.64-7.15 81.72-7.88 81.79-8.6 81.74-9.05L81.74-9.05Q81.69-9.2 81.57-9.85 81.44-10.5 81.19-11L81.19-11Q80.94-11.4 80.39-11.75 79.84-12.1 79.39-12.05L79.39-12.05Q78.44-12 77.34-11.35 76.24-10.7 75.29-9.6L75.29-9.6Q74.34-8.45 73.82-7.28 73.29-6.1 73.29-5.1L73.29-5.1Q73.39-3.75 74.04-3.3L74.04-3.3Q74.39-3.05 74.89-3.05L74.89-3.05Q75.29-3.05 75.54-3.15L75.54-3.15ZM97.84-21.1Q97.84-20.15 97.59-18.5L97.59-18.5Q97.39-16.6 97.34-15.45L97.34-15.45Q97.94-15.7 98.74-16.6L98.74-16.6Q99.19-17.1 99.64-17.45L99.64-17.45Q101.84-19 103.84-19L103.84-19Q105.94-19 108.29-17.25L108.29-17.25Q111.84-14.65 111.84-11.15L111.84-11.15Q111.84-8.4 109.54-5.35L109.54-5.35Q106.24-0.9 100.24 0L100.24 0Q99.94 0.05 99.34 0.05L99.34 0.05Q98.39 0.05 96.19-0.35L96.19-0.35Q96.19-0.85 96.04-1.45L96.04-1.45Q96.39-1.6 96.97-1.88 97.54-2.15 97.99-2.2L97.99-2.2Q99.54-2.35 101.47-3.83 103.39-5.3 104.84-7.25 106.29-9.2 106.49-10.65L106.49-10.65Q106.54-10.85 106.59-11.2 106.64-11.55 106.64-12.05L106.64-12.05Q106.64-12.55 106.49-12.9L106.49-12.9Q105.69-14.75 104.64-15.35L104.64-15.35Q104.34-15.5 103.59-15.03 102.84-14.55 102.39-14L102.39-14Q99.09-10.4 98.49-5.75L98.49-5.75Q98.29-3.95 96.44-4L96.44-4Q94.94-4 93.69-5.23 92.44-6.45 92.44-7.95L92.44-7.95Q92.39-15.5 92.39-30.55L92.39-30.55Q92.39-31.8 93.12-32.27 93.84-32.75 95.24-33.05L95.24-33.05Q95.84-33.2 96.59-32.8 97.34-32.4 97.89-31.75 98.44-31.1 98.44-30.45L98.44-30.45Q98.44-27.5 97.99-23.1L97.99-23.1 97.84-21.1ZM137.09-35.6Q138.34-35.1 138.34-34.2L138.34-34.2Q138.34-33.3 137.09-31.9L137.09-31.9Q136.54-31.95 135.49-31.95L135.49-31.95Q133.19-31.95 131.09-31.33 128.99-30.7 126.74-29.4L126.74-29.4Q125.69-28.75 124.94-27.75L124.94-27.75Q124.39-27.15 124.39-26.35L124.39-26.35Q124.39-25 125.89-23.75L125.89-23.75Q127.34-22.25 130.64-18.3L130.64-18.3 131.79-17.1Q134.24-14.45 135.66-12.6 137.09-10.75 138.09-8.35L138.09-8.35Q138.49-7.3 138.49-6.45L138.49-6.45Q138.49-4.3 136.84-2.5L136.84-2.5Q134.94-0.4 132.44 0.58 129.94 1.55 126.79 1.8L126.79 1.8Q126.39 1.85 125.84 1.9 125.29 1.95 124.59 1.95L124.59 1.95Q124.14 1.95 123.24 1.85L123.24 1.85Q122.14 1.9 120.94 1.48 119.74 1.05 118.74 0.25L118.74 0.25Q116.84-1.35 116.84-3.3L116.84-3.3Q116.84-4.95 118.24-6.65L118.24-6.65Q118.94-6.55 119.06-6.23 119.19-5.9 119.11-5.5 119.04-5.1 119.04-4.85L119.04-4.85Q119.04-4.7 119.14-4.4L119.14-4.4Q121.09-3.5 123.79-3.5L123.79-3.5Q126.79-3.5 129.46-4.53 132.14-5.55 132.74-7.05L132.74-7.05Q133.09-8.05 131.04-10.58 128.99-13.1 126.44-15.5L126.44-15.5Q124.04-17.65 122.09-19.75L122.09-19.75Q120.99-20.95 120.36-22.53 119.74-24.1 119.74-25.8L119.74-25.8Q119.74-28.1 120.91-30.15 122.09-32.2 124.44-33.5L124.44-33.5Q128.94-36.05 133.64-36.05L133.64-36.05Q134.29-36.05 135.49-35.95L135.49-35.95Q136.59-35.85 137.09-35.6L137.09-35.6ZM147.79-21Q149.04-20.65 149.56-20.15 150.09-19.65 150.09-18.8L150.09-18.8Q150.09-18.4 149.94-17.75L149.94-17.75Q149.39-15.5 149.34-13.25L149.34-13.25Q149.29-10.7 150.14-8.55L150.14-8.55Q150.44-7.8 150.71-7.48 150.99-7.15 151.39-7.15L151.39-7.15Q151.89-7.15 152.69-8.05L152.69-8.05Q154.54-10.25 155.44-12.45 156.34-14.65 156.54-17L156.54-17Q156.69-18.55 157.04-18.95L157.04-18.95Q157.24-19.15 157.69-19.2 158.14-19.25 158.99-19.25L158.99-19.25Q160.34-19.15 160.86-19 161.39-18.85 161.59-18.5 161.79-18.15 161.79-17.35L161.79-17.35 161.74-15Q161.74-14.25 161.69-12.8L161.69-12.8Q161.54-8.3 161.44-6.1L161.44-6.1Q161.39-4.35 160.39-1.7L160.39-1.7Q160.29-1.55 159.84-1.28 159.39-1 159.04-0.95L159.04-0.95Q158.94-0.95 158.61-1.28 158.29-1.6 158.14-1.85L158.14-1.85Q157.79-2.65 157.34-4L157.34-4 156.94-4.95 156.84-5.25 156.69-5.1 155.89-4.6Q155.29-4.1 154.59-3.8L154.59-3.8Q153.44-3.1 151.84-3.1L151.84-3.1Q149.84-3.1 148.04-4.23 146.24-5.35 145.19-7.3L145.19-7.3Q143.49-10.3 143.49-14.25L143.49-14.25Q143.49-16.25 144.04-19.3L144.04-19.3Q144.14-20.05 144.99-20.6L144.99-20.6Q145.74-21.15 146.74-21.15L146.74-21.15Q147.24-21.15 147.79-21L147.79-21ZM185.88-5.1Q184.38-3.4 182.83-2.43 181.28-1.45 179.38-1.45L179.38-1.45Q178.98-1.45 178.28-1.55L178.28-1.55 177.28-1.5Q170.98-1.45 168.08-7.5L168.08-7.5Q167.43-8.9 167.43-10.85L167.43-10.85Q167.43-12.55 167.93-14.1 168.43-15.65 169.33-16.65L169.33-16.65 170.28-17.8Q170.98-18.7 171.38-19.05L171.38-19.05Q173.13-20.75 176.03-20.75L176.03-20.75Q177.53-20.75 178.98-20.25 180.43-19.75 181.53-18.9L181.53-18.9Q181.73-18.75 181.93-18.28 182.13-17.8 182.13-17.5L182.13-17.5Q182.13-17.1 181.53-16.63 180.93-16.15 180.43-16.2L180.43-16.2Q177.03-16.6 174.98-14.58 172.93-12.55 172.93-9.05L172.93-9.05Q172.93-6.75 173.91-5.8 174.88-4.85 177.13-4.85L177.13-4.85Q178.53-4.85 179.78-5.43 181.03-6 182.68-7.05L182.68-7.05 183.63-7.65Q184.13-7.9 184.96-7.98 185.78-8.05 186.23-8.1L186.23-8.1Q186.18-7.65 186.21-7.23 186.23-6.8 186.23-6.55L186.23-6.55Q186.23-5.45 185.88-5.1L185.88-5.1ZM196.38-26.7Q196.43-21.85 196.66-18.73 196.88-15.6 197.73-12.1L197.73-12.1Q199.83-12.85 201.58-12.85L201.58-12.85Q204.53-12.85 206.68-11.1 208.83-9.35 209.58-6.75L209.58-6.75Q210.18-4.85 210.18-1.65L210.18-1.65 210.13 2.25Q210.13 2.6 209.73 3.05 209.33 3.5 208.93 3.6L208.93 3.6Q208.78 3.65 208.48 3.65L208.48 3.65Q207.33 3.65 206.08 2.53 204.83 1.4 204.78 0.3L204.78 0.3 204.68-2.3Q204.68-3.2 204.58-4.9L204.58-4.9Q204.48-6.65 204.18-7.4L204.18-7.4Q203.88-8.25 203.43-8.7 202.98-9.15 202.43-9.15L202.43-9.15Q202.03-9.15 201.56-8.8 201.08-8.45 200.73-7.85L200.73-7.85Q199.68-6.2 197.98-1.35L197.98-1.35Q197.43 0.4 196.03 0.4L196.03 0.4Q195.88 0.4 195.38 0.3L195.38 0.3Q195.08 0.2 194.23-0.03 193.38-0.25 192.91-0.75 192.43-1.25 192.43-2.2L192.43-2.2Q192.43-11.65 191.28-17.85L191.28-17.85Q190.73-20.95 190.73-25L190.73-25 190.73-28.35 190.73-30.1Q190.73-30.8 191.48-31.3 192.23-31.8 193.18-31.8L193.18-31.8Q193.98-31.8 194.53-31.45L194.53-31.45Q195.53-30.85 195.96-29.95 196.38-29.05 196.38-27.7L196.38-27.7 196.38-26.7ZM219.83-23.3Q219.73-23 219.1-22.65 218.48-22.3 218.08-22L218.08-22 216.68-22.75Q214.63-23.85 213.88-24.5L213.88-24.5Q213.48-24.8 213.48-25.25L213.48-25.25Q213.48-25.55 213.7-25.78 213.93-26 214.38-26L214.38-26Q216.33-26 219.13-25L219.13-25Q219.43-24.95 219.68-24.33 219.93-23.7 219.83-23.3L219.83-23.3ZM215.33-14Q215.48-14.65 215.53-14.95 215.58-15.25 215.58-15.6L215.58-15.6Q215.58-16.3 216-16.7 216.43-17.1 217.63-17.1L217.63-17.1Q219.03-17.1 220.1-16.23 221.18-15.35 221.43-13.95L221.43-13.95Q221.58-13.25 221.63-12.4 221.68-11.55 221.68-11.3L221.68-11.3 222.38-2.75Q222.53-1.4 222-0.68 221.48 0.05 220.03 0.05L220.03 0.05Q218.78 0.05 217.9-0.65 217.03-1.35 216.83-2.45L216.83-2.45 215.53-13.05 215.33-14Z" opacity="1" transform="matrix(1,0,0,1,0,0)" fill="#1b5e20" class="undefined-text-0" data-fill-palette-color="primary" id="text-0"></path></svg></g></svg></g></svg></g></svg></g><g></g></svg></g></svg></g></svg></g></svg></g><defs></defs></svg><rect width="320" height="360" fill="none" stroke="none" visibility="hidden"></rect></g></svg></g></svg>